<svg xmlns="http://www.w3.org/2000/svg" xmlns:xlink="http://www.w3.org/1999/xlink" width="512" zoomAndPan="magnify" viewBox="0 0 384 383.999986" height="512" preserveAspectRatio="xMidYMid meet" version="1.0"><defs><g/></defs><rect x="-38.4" width="460.8" fill="#ffffff" y="-38.399999" height="460.799983" fill-opacity="1"/><rect x="-38.4" width="460.8" fill="#ffffff" y="-38.399999" height="460.799983" fill-opacity="1"/><path fill="#2563eb" d="M 120 36 L 264 36 C 283.875 36 300 52.125 300 72 L 300 348 L 192 288 L 84 348 L 84 72 C 84 52.125 100.125 36 120 36 Z M 120 36 " fill-opacity="1" fill-rule="nonzero"/><path fill="#ffffff" d="M 216 108 C 216 108.785156 215.960938 109.570312 215.882812 110.351562 C 215.808594 111.132812 215.691406 111.910156 215.539062 112.683594 C 215.386719 113.453125 215.195312 114.214844 214.964844 114.96875 C 214.738281 115.71875 214.472656 116.457031 214.171875 117.183594 C 213.871094 117.910156 213.535156 118.621094 213.167969 119.3125 C 212.796875 120.007812 212.390625 120.679688 211.957031 121.332031 C 211.519531 121.988281 211.050781 122.617188 210.550781 123.226562 C 210.054688 123.832031 209.527344 124.414062 208.96875 124.96875 C 208.414062 125.527344 207.832031 126.054688 207.226562 126.550781 C 206.617188 127.050781 205.988281 127.519531 205.332031 127.957031 C 204.679688 128.390625 204.007812 128.796875 203.3125 129.167969 C 202.621094 129.535156 201.910156 129.871094 201.183594 130.171875 C 200.457031 130.472656 199.71875 130.738281 198.96875 130.964844 C 198.214844 131.195312 197.453125 131.386719 196.683594 131.539062 C 195.910156 131.691406 195.132812 131.808594 194.351562 131.882812 C 193.570312 131.960938 192.785156 132 192 132 C 191.214844 132 190.429688 131.960938 189.648438 131.882812 C 188.867188 131.808594 188.089844 131.691406 187.316406 131.539062 C 186.546875 131.386719 185.785156 131.195312 185.03125 130.964844 C 184.28125 130.738281 183.542969 130.472656 182.816406 130.171875 C 182.089844 129.871094 181.378906 129.535156 180.6875 129.167969 C 179.992188 128.796875 179.320312 128.390625 178.667969 127.957031 C 178.011719 127.519531 177.382812 127.050781 176.773438 126.550781 C 176.167969 126.054688 175.585938 125.527344 175.03125 124.96875 C 174.472656 124.414062 173.945312 123.832031 173.449219 123.226562 C 172.949219 122.617188 172.480469 121.988281 172.042969 121.332031 C 171.609375 120.679688 171.203125 120.007812 170.832031 119.3125 C 170.464844 118.621094 170.128906 117.910156 169.828125 117.183594 C 169.527344 116.457031 169.261719 115.71875 169.035156 114.96875 C 168.804688 114.214844 168.613281 113.453125 168.460938 112.683594 C 168.308594 111.910156 168.191406 111.132812 168.117188 110.351562 C 168.039062 109.570312 168 108.785156 168 108 C 168 107.214844 168.039062 106.429688 168.117188 105.648438 C 168.191406 104.867188 168.308594 104.089844 168.460938 103.316406 C 168.613281 102.546875 168.804688 101.785156 169.035156 101.03125 C 169.261719 100.28125 169.527344 99.542969 169.828125 98.816406 C 170.128906 98.089844 170.464844 97.378906 170.832031 96.6875 C 171.203125 95.992188 171.609375 95.320312 172.042969 94.667969 C 172.480469 94.011719 172.949219 93.382812 173.449219 92.773438 C 173.945312 92.167969 174.472656 91.585938 175.03125 91.03125 C 175.585938 90.472656 176.167969 89.945312 176.773438 89.449219 C 177.382812 88.949219 178.011719 88.480469 178.667969 88.042969 C 179.320312 87.609375 179.992188 87.203125 180.6875 86.832031 C 181.378906 86.464844 182.089844 86.128906 182.816406 85.828125 C 183.542969 85.527344 184.28125 85.261719 185.03125 85.035156 C 185.785156 84.804688 186.546875 84.613281 187.316406 84.460938 C 188.089844 84.308594 188.867188 84.191406 189.648438 84.117188 C 190.429688 84.039062 191.214844 84 192 84 C 192.785156 84 193.570312 84.039062 194.351562 84.117188 C 195.132812 84.191406 195.910156 84.308594 196.683594 84.460938 C 197.453125 84.613281 198.214844 84.804688 198.96875 85.035156 C 199.71875 85.261719 200.457031 85.527344 201.183594 85.828125 C 201.910156 86.128906 202.621094 86.464844 203.3125 86.832031 C 204.007812 87.203125 204.679688 87.609375 205.332031 88.042969 C 205.988281 88.480469 206.617188 88.949219 207.226562 89.449219 C 207.832031 89.945312 208.414062 90.472656 208.96875 91.03125 C 209.527344 91.585938 210.054688 92.167969 210.550781 92.773438 C 211.050781 93.382812 211.519531 94.011719 211.957031 94.667969 C 212.390625 95.320312 212.796875 95.992188 213.167969 96.6875 C 213.535156 97.378906 213.871094 98.089844 214.171875 98.816406 C 214.472656 99.542969 214.738281 100.28125 214.964844 101.03125 C 215.195312 101.785156 215.386719 102.546875 215.539062 103.316406 C 215.691406 104.089844 215.808594 104.867188 215.882812 105.648438 C 215.960938 106.429688 216 107.214844 216 108 Z M 216 108 " fill-opacity="1" fill-rule="nonzero"/><path stroke-linecap="round" transform="matrix(0.75, 0, 0, 0.75, 0.0000072, 0)" fill="none" stroke-linejoin="miter" d="M 256.000011 192.000015 L 256.000011 256.00002 " stroke="#ffffff" stroke-width="16" stroke-opacity="1" stroke-miterlimit="4"/><path stroke-linecap="round" transform="matrix(0.75, 0, 0, 0.75, 0.0000072, 0)" fill="none" stroke-linejoin="miter" d="M 192.000006 224.000018 L 320.000016 224.000018 " stroke="#ffffff" stroke-width="16" stroke-opacity="1" stroke-miterlimit="4"/><path fill="#ffffff" d="M 153 168 C 153 168.589844 152.941406 169.175781 152.828125 169.753906 C 152.710938 170.335938 152.542969 170.898438 152.316406 171.445312 C 152.089844 171.988281 151.8125 172.507812 151.484375 173 C 151.15625 173.492188 150.78125 173.945312 150.363281 174.363281 C 149.945312 174.78125 149.492188 175.15625 149 175.484375 C 148.507812 175.8125 147.988281 176.089844 147.445312 176.316406 C 146.898438 176.542969 146.335938 176.710938 145.753906 176.828125 C 145.175781 176.941406 144.589844 177 144 177 C 143.410156 177 142.824219 176.941406 142.246094 176.828125 C 141.664062 176.710938 141.101562 176.542969 140.554688 176.316406 C 140.011719 176.089844 139.492188 175.8125 139 175.484375 C 138.507812 175.15625 138.054688 174.78125 137.636719 174.363281 C 137.21875 173.945312 136.84375 173.492188 136.515625 173 C 136.1875 172.507812 135.910156 171.988281 135.683594 171.445312 C 135.457031 170.898438 135.289062 170.335938 135.171875 169.753906 C 135.058594 169.175781 135 168.589844 135 168 C 135 167.410156 135.058594 166.824219 135.171875 166.246094 C 135.289062 165.664062 135.457031 165.101562 135.683594 164.554688 C 135.910156 164.011719 136.1875 163.492188 136.515625 163 C 136.84375 162.507812 137.21875 162.054688 137.636719 161.636719 C 138.054688 161.21875 138.507812 160.84375 139 160.515625 C 139.492188 160.1875 140.011719 159.910156 140.554688 159.683594 C 141.101562 159.457031 141.664062 159.289062 142.246094 159.171875 C 142.824219 159.058594 143.410156 159 144 159 C 144.589844 159 145.175781 159.058594 145.753906 159.171875 C 146.335938 159.289062 146.898438 159.457031 147.445312 159.683594 C 147.988281 159.910156 148.507812 160.1875 149 160.515625 C 149.492188 160.84375 149.945312 161.21875 150.363281 161.636719 C 150.78125 162.054688 151.15625 162.507812 151.484375 163 C 151.8125 163.492188 152.089844 164.011719 152.316406 164.554688 C 152.542969 165.101562 152.710938 165.664062 152.828125 166.246094 C 152.941406 166.824219 153 167.410156 153 168 Z M 153 168 " fill-opacity="1" fill-rule="nonzero"/><path fill="#ffffff" d="M 249 168 C 249 168.589844 248.941406 169.175781 248.828125 169.753906 C 248.710938 170.335938 248.542969 170.898438 248.316406 171.445312 C 248.089844 171.988281 247.8125 172.507812 247.484375 173 C 247.15625 173.492188 246.78125 173.945312 246.363281 174.363281 C 245.945312 174.78125 245.492188 175.15625 245 175.484375 C 244.507812 175.8125 243.988281 176.089844 243.445312 176.316406 C 242.898438 176.542969 242.335938 176.710938 241.753906 176.828125 C 241.175781 176.941406 240.589844 177 240 177 C 239.410156 177 238.824219 176.941406 238.246094 176.828125 C 237.664062 176.710938 237.101562 176.542969 236.554688 176.316406 C 236.011719 176.089844 235.492188 175.8125 235 175.484375 C 234.507812 175.15625 234.054688 174.78125 233.636719 174.363281 C 233.21875 173.945312 232.84375 173.492188 232.515625 173 C 232.1875 172.507812 231.910156 171.988281 231.683594 171.445312 C 231.457031 170.898438 231.289062 170.335938 231.171875 169.753906 C 231.058594 169.175781 231 168.589844 231 168 C 231 167.410156 231.058594 166.824219 231.171875 166.246094 C 231.289062 165.664062 231.457031 165.101562 231.683594 164.554688 C 231.910156 164.011719 232.1875 163.492188 232.515625 163 C 232.84375 162.507812 233.21875 162.054688 233.636719 161.636719 C 234.054688 161.21875 234.507812 160.84375 235 160.515625 C 235.492188 160.1875 236.011719 159.910156 236.554688 159.683594 C 237.101562 159.457031 237.664062 159.289062 238.246094 159.171875 C 238.824219 159.058594 239.410156 159 240 159 C 240.589844 159 241.175781 159.058594 241.753906 159.171875 C 242.335938 159.289062 242.898438 159.457031 243.445312 159.683594 C 243.988281 159.910156 244.507812 160.1875 245 160.515625 C 245.492188 160.84375 245.945312 161.21875 246.363281 161.636719 C 246.78125 162.054688 247.15625 162.507812 247.484375 163 C 247.8125 163.492188 248.089844 164.011719 248.316406 164.554688 C 248.542969 165.101562 248.710938 165.664062 248.828125 166.246094 C 248.941406 166.824219 249 167.410156 249 168 Z M 249 168 " fill-opacity="1" fill-rule="nonzero"/><path fill="#2563eb" d="M 51 75 L 69 75 C 69.398438 75 69.78125 75.074219 70.148438 75.226562 C 70.515625 75.378906 70.839844 75.597656 71.121094 75.878906 C 71.402344 76.160156 71.621094 76.484375 71.773438 76.851562 C 71.925781 77.21875 72 77.601562 72 78 L 72 222 C 72 222.398438 71.925781 222.78125 71.773438 223.148438 C 71.621094 223.515625 71.402344 223.839844 71.121094 224.121094 C 70.839844 224.402344 70.515625 224.621094 70.148438 224.773438 C 69.78125 224.925781 69.398438 225 69 225 L 51 225 C 50.601562 225 50.21875 224.925781 49.851562 224.773438 C 49.484375 224.621094 49.160156 224.402344 48.878906 224.121094 C 48.597656 223.839844 48.378906 223.515625 48.226562 223.148438 C 48.074219 222.78125 48 222.398438 48 222 L 48 78 C 48 77.601562 48.074219 77.21875 48.226562 76.851562 C 48.378906 76.484375 48.597656 76.160156 48.878906 75.878906 C 49.160156 75.597656 49.484375 75.378906 49.851562 75.226562 C 50.21875 75.074219 50.601562 75 51 75 Z M 51 75 " fill-opacity="0.2" fill-rule="nonzero"/><path fill="#2563eb" d="M 315 75 L 333 75 C 333.398438 75 333.78125 75.074219 334.148438 75.226562 C 334.515625 75.378906 334.839844 75.597656 335.121094 75.878906 C 335.402344 76.160156 335.621094 76.484375 335.773438 76.851562 C 335.921875 77.21875 336 77.601562 336 78 L 336 222 C 336 222.398438 335.921875 222.78125 335.773438 223.148438 C 335.621094 223.515625 335.402344 223.839844 335.121094 224.121094 C 334.839844 224.402344 334.515625 224.621094 334.148438 224.773438 C 333.78125 224.925781 333.398438 225 333 225 L 315 225 C 314.601562 225 314.21875 224.925781 313.851562 224.773438 C 313.484375 224.621094 313.160156 224.402344 312.878906 224.121094 C 312.597656 223.839844 312.378906 223.515625 312.226562 223.148438 C 312.074219 222.78125 312 222.398438 312 222 L 312 78 C 312 77.601562 312.074219 77.21875 312.226562 76.851562 C 312.378906 76.484375 312.597656 76.160156 312.878906 75.878906 C 313.160156 75.597656 313.484375 75.378906 313.851562 75.226562 C 314.21875 75.074219 314.601562 75 315 75 Z M 315 75 " fill-opacity="0.2" fill-rule="nonzero"/><g fill="#ffffff" fill-opacity="1"><g transform="translate(122.184365, 264.678538)"><g><path d="M 15.4375 -6.421875 C 14.539062 -6.648438 13.570312 -6.847656 12.53125 -7.015625 C 11.5 -7.179688 10.460938 -7.320312 9.421875 -7.4375 C 8.378906 -7.5625 7.40625 -7.648438 6.5 -7.703125 C 6.125 -7.179688 5.675781 -6.566406 5.15625 -5.859375 C 4.632812 -5.160156 4.09375 -4.421875 3.53125 -3.640625 C 2.96875 -2.867188 2.421875 -2.097656 1.890625 -1.328125 C 1.359375 -0.566406 0.898438 0.132812 0.515625 0.78125 C 0.398438 0.789062 0.164062 0.703125 -0.1875 0.515625 C -0.550781 0.328125 -0.96875 0.0859375 -1.4375 -0.203125 C -1.90625 -0.492188 -2.363281 -0.804688 -2.8125 -1.140625 C -3.269531 -1.472656 -3.648438 -1.773438 -3.953125 -2.046875 C -3.453125 -2.835938 -2.773438 -3.800781 -1.921875 -4.9375 C -1.066406 -6.070312 -0.0820312 -7.328125 1.03125 -8.703125 C 2.15625 -10.078125 3.382812 -11.53125 4.71875 -13.0625 C 6.050781 -14.59375 7.453125 -16.15625 8.921875 -17.75 C 10.398438 -19.351562 11.921875 -20.945312 13.484375 -22.53125 C 15.054688 -24.113281 16.632812 -25.644531 18.21875 -27.125 C 19.800781 -28.601562 21.363281 -29.972656 22.90625 -31.234375 C 23.257812 -31.234375 23.660156 -31.191406 24.109375 -31.109375 C 24.554688 -31.035156 24.976562 -30.9375 25.375 -30.8125 C 25.78125 -30.695312 26.101562 -30.578125 26.34375 -30.453125 C 26.582031 -30.328125 26.6875 -30.207031 26.65625 -30.09375 C 26.125 -28.3125 25.597656 -26.429688 25.078125 -24.453125 C 24.554688 -22.472656 24.082031 -20.460938 23.65625 -18.421875 C 23.226562 -16.378906 22.890625 -14.359375 22.640625 -12.359375 C 22.390625 -10.359375 22.265625 -8.445312 22.265625 -6.625 C 22.265625 -5.769531 22.300781 -4.890625 22.375 -3.984375 C 22.457031 -3.085938 22.5 -2.265625 22.5 -1.515625 C 22.5 -0.679688 22.394531 0.0078125 22.1875 0.5625 C 21.976562 1.125 21.5625 1.40625 20.9375 1.40625 C 20.894531 1.40625 20.859375 1.398438 20.828125 1.390625 C 20.796875 1.378906 20.757812 1.375 20.71875 1.375 C 19.65625 1.269531 18.789062 1.046875 18.125 0.703125 C 17.457031 0.367188 16.9375 -0.0546875 16.5625 -0.578125 C 16.195312 -1.097656 15.9375 -1.675781 15.78125 -2.3125 C 15.632812 -2.945312 15.539062 -3.613281 15.5 -4.3125 C 15.46875 -5.007812 15.445312 -5.710938 15.4375 -6.421875 Z M 18.5 -20.953125 C 18.125 -20.660156 17.65625 -20.222656 17.09375 -19.640625 C 16.539062 -19.066406 15.921875 -18.398438 15.234375 -17.640625 C 14.554688 -16.890625 13.84375 -16.101562 13.09375 -15.28125 C 12.351562 -14.46875 11.613281 -13.660156 10.875 -12.859375 C 10.132812 -12.054688 9.429688 -11.332031 8.765625 -10.6875 L 15.5625 -9.78125 C 15.625 -10.0625 15.722656 -10.5 15.859375 -11.09375 C 16.003906 -11.6875 16.171875 -12.367188 16.359375 -13.140625 C 16.546875 -13.921875 16.738281 -14.722656 16.9375 -15.546875 C 17.132812 -16.378906 17.328125 -17.171875 17.515625 -17.921875 C 17.710938 -18.671875 17.898438 -19.316406 18.078125 -19.859375 C 18.253906 -20.410156 18.394531 -20.773438 18.5 -20.953125 Z M 18.5 -20.953125 "/></g></g></g><g fill="#ffffff" fill-opacity="1"><g transform="translate(147.561842, 264.678538)"><g><path d="M 13.953125 -27.65625 C 13.984375 -27.632812 14 -27.585938 14 -27.515625 C 14 -27.296875 13.878906 -26.832031 13.640625 -26.125 C 13.410156 -25.425781 13.09375 -24.554688 12.6875 -23.515625 C 12.289062 -22.472656 11.835938 -21.316406 11.328125 -20.046875 C 10.816406 -18.785156 10.265625 -17.472656 9.671875 -16.109375 C 9.085938 -14.742188 8.503906 -13.382812 7.921875 -12.03125 C 7.335938 -10.675781 6.769531 -9.390625 6.21875 -8.171875 C 5.675781 -6.953125 5.179688 -5.859375 4.734375 -4.890625 C 4.285156 -3.921875 3.914062 -3.144531 3.625 -2.5625 C 3.414062 -2.15625 3.140625 -1.742188 2.796875 -1.328125 C 2.453125 -0.910156 2.050781 -0.554688 1.59375 -0.265625 C 1.144531 0.015625 0.660156 0.15625 0.140625 0.15625 C -0.484375 0.15625 -0.898438 0.0234375 -1.109375 -0.234375 C -1.328125 -0.492188 -1.4375 -0.867188 -1.4375 -1.359375 C -1.4375 -1.835938 -1.347656 -2.535156 -1.171875 -3.453125 C -1.003906 -4.378906 -0.765625 -5.453125 -0.453125 -6.671875 C -0.140625 -7.890625 0.222656 -9.207031 0.640625 -10.625 C 1.066406 -12.050781 1.519531 -13.507812 2 -15 C 2.476562 -16.488281 2.976562 -17.957031 3.5 -19.40625 C 4.03125 -20.851562 4.554688 -22.222656 5.078125 -23.515625 C 5.597656 -24.804688 6.097656 -25.957031 6.578125 -26.96875 C 7.066406 -27.988281 7.519531 -28.804688 7.9375 -29.421875 C 8.363281 -30.046875 8.734375 -30.40625 9.046875 -30.5 C 9.554688 -30.125 10.113281 -29.78125 10.71875 -29.46875 C 11.332031 -29.15625 11.925781 -28.851562 12.5 -28.5625 C 13.070312 -28.28125 13.554688 -27.976562 13.953125 -27.65625 Z M 13.953125 -27.65625 "/></g></g></g><g fill="#ffffff" fill-opacity="1"><g transform="translate(157.820817, 264.678538)"><g><path d="M 9.734375 -4.59375 C 9.734375 -3.96875 9.785156 -3.53125 9.890625 -3.28125 C 10.003906 -3.03125 10.128906 -2.90625 10.265625 -2.90625 C 10.566406 -2.90625 10.953125 -3.03125 11.421875 -3.28125 C 11.890625 -3.53125 12.398438 -3.867188 12.953125 -4.296875 C 13.515625 -4.722656 14.09375 -5.195312 14.6875 -5.71875 C 15.28125 -6.238281 15.859375 -6.765625 16.421875 -7.296875 C 16.984375 -7.828125 17.492188 -8.328125 17.953125 -8.796875 C 18.410156 -9.265625 18.785156 -9.660156 19.078125 -9.984375 C 19.535156 -10.460938 19.894531 -10.867188 20.15625 -11.203125 C 20.425781 -11.546875 20.585938 -11.742188 20.640625 -11.796875 C 20.742188 -11.898438 20.890625 -11.953125 21.078125 -11.953125 C 21.316406 -11.953125 21.5625 -11.875 21.8125 -11.71875 C 22.070312 -11.5625 22.289062 -11.378906 22.46875 -11.171875 C 22.644531 -10.960938 22.734375 -10.785156 22.734375 -10.640625 C 22.734375 -10.171875 22.550781 -9.625 22.1875 -9 C 21.832031 -8.375 21.421875 -7.734375 20.953125 -7.078125 C 20.453125 -6.359375 19.941406 -5.59375 19.421875 -4.78125 C 18.910156 -3.976562 18.34375 -3.171875 17.71875 -2.359375 C 17.101562 -1.546875 16.390625 -0.753906 15.578125 0.015625 C 14.765625 0.796875 13.804688 1.507812 12.703125 2.15625 C 11.867188 1.945312 11.003906 1.65625 10.109375 1.28125 C 9.222656 0.90625 8.359375 0.476562 7.515625 0 C 6.679688 -0.46875 5.921875 -0.953125 5.234375 -1.453125 C 4.359375 -2.117188 3.921875 -3.03125 3.921875 -4.1875 C 3.921875 -4.789062 4.003906 -5.429688 4.171875 -6.109375 C 4.347656 -6.796875 4.578125 -7.484375 4.859375 -8.171875 C 5.140625 -8.859375 5.4375 -9.515625 5.75 -10.140625 C 6.0625 -10.773438 6.367188 -11.347656 6.671875 -11.859375 C 6.972656 -12.367188 7.222656 -12.78125 7.421875 -13.09375 C 7.171875 -12.9375 6.90625 -12.820312 6.625 -12.75 C 6.34375 -12.675781 6.0625 -12.640625 5.78125 -12.640625 C 5.4375 -12.640625 5.109375 -12.691406 4.796875 -12.796875 C 4.492188 -12.898438 4.25 -13.054688 4.0625 -13.265625 C 3.976562 -12.785156 3.835938 -12.265625 3.640625 -11.703125 C 3.441406 -11.148438 3.191406 -10.628906 2.890625 -10.140625 C 2.585938 -9.660156 2.257812 -9.265625 1.90625 -8.953125 C 1.550781 -8.648438 1.179688 -8.5 0.796875 -8.5 C 0.597656 -8.5 0.453125 -8.566406 0.359375 -8.703125 L -0.3125 -10.625 C -0.238281 -10.84375 -0.109375 -11.066406 0.078125 -11.296875 C 0.273438 -11.535156 0.441406 -11.753906 0.578125 -11.953125 C 0.734375 -12.210938 0.84375 -12.554688 0.90625 -12.984375 C 0.96875 -13.410156 1.007812 -13.875 1.03125 -14.375 C 1.050781 -14.875 1.070312 -15.363281 1.09375 -15.84375 C 1.125 -16.332031 1.175781 -16.773438 1.25 -17.171875 C 1.332031 -17.566406 1.46875 -17.859375 1.65625 -18.046875 C 1.894531 -18.117188 2.113281 -18.15625 2.3125 -18.15625 C 2.613281 -18.15625 2.867188 -18.082031 3.078125 -17.9375 C 3.296875 -17.800781 3.503906 -17.632812 3.703125 -17.4375 C 3.898438 -17.25 4.117188 -17.082031 4.359375 -16.9375 C 4.609375 -16.800781 4.914062 -16.734375 5.28125 -16.734375 C 6.519531 -16.734375 7.734375 -16.875 8.921875 -17.15625 C 10.109375 -17.4375 11.207031 -17.890625 12.21875 -18.515625 C 12.78125 -18.867188 13.351562 -19.285156 13.9375 -19.765625 C 14.519531 -20.253906 15.066406 -20.710938 15.578125 -21.140625 C 15.679688 -21.222656 15.800781 -21.28125 15.9375 -21.3125 C 16.082031 -21.34375 16.207031 -21.378906 16.3125 -21.421875 C 16.539062 -21.273438 16.765625 -21.050781 16.984375 -20.75 C 17.203125 -20.457031 17.398438 -20.140625 17.578125 -19.796875 C 17.765625 -19.453125 17.910156 -19.113281 18.015625 -18.78125 C 18.128906 -18.445312 18.1875 -18.164062 18.1875 -17.9375 C 18.1875 -17.695312 18.019531 -17.53125 17.6875 -17.4375 C 17.3125 -17.320312 16.898438 -17.039062 16.453125 -16.59375 C 16.003906 -16.15625 15.550781 -15.628906 15.09375 -15.015625 C 14.632812 -14.398438 14.179688 -13.757812 13.734375 -13.09375 C 13.296875 -12.425781 12.894531 -11.789062 12.53125 -11.1875 C 12.164062 -10.582031 11.847656 -10.070312 11.578125 -9.65625 C 11.066406 -8.851562 10.628906 -8.03125 10.265625 -7.1875 C 9.910156 -6.34375 9.734375 -5.476562 9.734375 -4.59375 Z M 9.734375 -4.59375 "/></g></g></g><g fill="#ffffff" fill-opacity="1"><g transform="translate(177.938819, 264.678538)"><g><path d="M 15.796875 -9.953125 C 15.941406 -10.109375 16.132812 -10.3125 16.375 -10.5625 C 16.613281 -10.820312 16.890625 -11.085938 17.203125 -11.359375 C 17.523438 -11.640625 17.859375 -11.875 18.203125 -12.0625 C 18.546875 -12.25 18.890625 -12.34375 19.234375 -12.34375 C 19.304688 -12.34375 19.378906 -12.34375 19.453125 -12.34375 C 19.535156 -12.351562 19.617188 -12.359375 19.703125 -12.359375 C 19.890625 -12.359375 20.054688 -12.3125 20.203125 -12.21875 C 20.347656 -12.125 20.421875 -11.898438 20.421875 -11.546875 C 20.421875 -10.910156 20.3125 -10.3125 20.09375 -9.75 C 19.875 -9.195312 19.597656 -8.6875 19.265625 -8.21875 C 18.960938 -7.800781 18.550781 -7.304688 18.03125 -6.734375 C 17.519531 -6.160156 16.929688 -5.5625 16.265625 -4.9375 C 15.597656 -4.3125 14.894531 -3.691406 14.15625 -3.078125 C 13.414062 -2.460938 12.671875 -1.910156 11.921875 -1.421875 C 11.171875 -0.929688 10.457031 -0.535156 9.78125 -0.234375 C 9.113281 0.0546875 8.519531 0.203125 8 0.203125 C 7.851562 0.203125 7.613281 0.144531 7.28125 0.03125 C 6.945312 -0.0703125 6.554688 -0.207031 6.109375 -0.375 C 5.671875 -0.550781 5.222656 -0.738281 4.765625 -0.9375 C 4.316406 -1.132812 3.898438 -1.320312 3.515625 -1.5 C 3.140625 -1.6875 2.851562 -1.835938 2.65625 -1.953125 C 1.644531 -2.546875 0.816406 -3.296875 0.171875 -4.203125 C -0.460938 -5.109375 -0.78125 -6.222656 -0.78125 -7.546875 C -0.78125 -8.390625 -0.640625 -9.269531 -0.359375 -10.1875 C -0.078125 -11.113281 0.3125 -12.03125 0.8125 -12.9375 C 1.3125 -13.84375 1.898438 -14.695312 2.578125 -15.5 C 3.253906 -16.3125 3.984375 -17.023438 4.765625 -17.640625 C 5.554688 -18.265625 6.382812 -18.753906 7.25 -19.109375 C 8.113281 -19.472656 8.976562 -19.65625 9.84375 -19.65625 C 11.21875 -19.65625 12.257812 -19.332031 12.96875 -18.6875 C 13.6875 -18.050781 14.046875 -17.109375 14.046875 -15.859375 C 14.046875 -14.960938 13.859375 -14.15625 13.484375 -13.4375 C 13.117188 -12.726562 12.632812 -12.09375 12.03125 -11.53125 C 11.425781 -10.976562 10.742188 -10.484375 9.984375 -10.046875 C 9.234375 -9.617188 8.46875 -9.226562 7.6875 -8.875 C 6.90625 -8.53125 6.171875 -8.21875 5.484375 -7.9375 C 5.265625 -7.582031 5.101562 -7.253906 5 -6.953125 C 4.894531 -6.660156 4.84375 -6.269531 4.84375 -5.78125 C 4.84375 -5.257812 4.960938 -4.847656 5.203125 -4.546875 C 5.441406 -4.242188 5.941406 -4.09375 6.703125 -4.09375 C 7.316406 -4.09375 7.953125 -4.222656 8.609375 -4.484375 C 9.265625 -4.742188 9.921875 -5.09375 10.578125 -5.53125 C 11.242188 -5.96875 11.894531 -6.441406 12.53125 -6.953125 C 13.164062 -7.472656 13.757812 -7.992188 14.3125 -8.515625 C 14.863281 -9.046875 15.359375 -9.523438 15.796875 -9.953125 Z M 11.078125 -16.375 C 11.015625 -16.40625 10.953125 -16.441406 10.890625 -16.484375 C 10.835938 -16.523438 10.785156 -16.546875 10.734375 -16.546875 C 10.296875 -16.484375 9.882812 -16.320312 9.5 -16.0625 C 9.113281 -15.8125 8.765625 -15.5 8.453125 -15.125 C 8.148438 -14.757812 7.890625 -14.375 7.671875 -13.96875 C 7.453125 -13.570312 7.289062 -13.207031 7.1875 -12.875 C 7.738281 -12.925781 8.265625 -13.132812 8.765625 -13.5 C 9.265625 -13.875 9.710938 -14.320312 10.109375 -14.84375 C 10.515625 -15.375 10.835938 -15.882812 11.078125 -16.375 Z M 11.078125 -16.375 "/></g></g></g><g fill="#ffffff" fill-opacity="1"><g transform="translate(194.917135, 264.678538)"><g><path d="M 13.921875 1.484375 C 13.546875 1.484375 13.097656 1.4375 12.578125 1.34375 C 12.054688 1.25 11.539062 1.09375 11.03125 0.875 C 10.53125 0.664062 10.113281 0.390625 9.78125 0.046875 C 9.445312 -0.285156 9.28125 -0.703125 9.28125 -1.203125 C 9.28125 -1.460938 9.316406 -1.726562 9.390625 -2 C 9.472656 -2.269531 9.5625 -2.53125 9.65625 -2.78125 C 8.75 -2.164062 7.804688 -1.738281 6.828125 -1.5 C 5.847656 -1.257812 4.929688 -1.140625 4.078125 -1.140625 C 3.160156 -1.140625 2.378906 -1.242188 1.734375 -1.453125 C 1.085938 -1.671875 0.691406 -1.90625 0.546875 -2.15625 C 0.046875 -3.132812 -0.316406 -4.0625 -0.546875 -4.9375 C -0.785156 -5.820312 -0.90625 -6.660156 -0.90625 -7.453125 C -0.90625 -8.640625 -0.675781 -9.738281 -0.21875 -10.75 C 0.226562 -11.757812 0.84375 -12.675781 1.625 -13.5 C 2.6875 -14.632812 3.753906 -15.507812 4.828125 -16.125 C 5.898438 -16.75 7.003906 -17.0625 8.140625 -17.0625 C 9.085938 -17.0625 10.0625 -16.820312 11.0625 -16.34375 C 12.070312 -15.875 13.113281 -15.140625 14.1875 -14.140625 C 14.34375 -14.328125 14.539062 -14.476562 14.78125 -14.59375 C 15.03125 -14.71875 15.289062 -14.78125 15.5625 -14.78125 C 15.789062 -14.78125 16.023438 -14.722656 16.265625 -14.609375 C 16.515625 -14.503906 16.742188 -14.320312 16.953125 -14.0625 C 17.410156 -13.53125 17.75 -13.097656 17.96875 -12.765625 C 18.1875 -12.441406 18.296875 -12.125 18.296875 -11.8125 C 18.296875 -11.539062 18.203125 -11.222656 18.015625 -10.859375 C 17.828125 -10.492188 17.539062 -10.019531 17.15625 -9.4375 C 16.425781 -8.34375 15.820312 -7.296875 15.34375 -6.296875 C 14.875 -5.304688 14.523438 -4.269531 14.296875 -3.1875 C 14.285156 -3.125 14.273438 -3.070312 14.265625 -3.03125 C 14.265625 -3 14.265625 -2.960938 14.265625 -2.921875 C 14.265625 -2.640625 14.40625 -2.5 14.6875 -2.5 C 14.957031 -2.5 15.359375 -2.640625 15.890625 -2.921875 C 16.429688 -3.210938 17.046875 -3.601562 17.734375 -4.09375 C 18.421875 -4.59375 19.144531 -5.148438 19.90625 -5.765625 C 20.675781 -6.378906 21.4375 -7.015625 22.1875 -7.671875 C 22.9375 -8.328125 23.648438 -8.972656 24.328125 -9.609375 C 25.003906 -10.242188 25.582031 -10.8125 26.0625 -11.3125 C 26.488281 -10.894531 26.785156 -10.46875 26.953125 -10.03125 C 27.117188 -9.59375 27.203125 -9.179688 27.203125 -8.796875 C 27.203125 -8.460938 27.15625 -8.148438 27.0625 -7.859375 C 26.96875 -7.566406 26.851562 -7.328125 26.71875 -7.140625 C 25.664062 -5.554688 24.414062 -4.132812 22.96875 -2.875 C 21.519531 -1.613281 19.957031 -0.539062 18.28125 0.34375 C 17.570312 0.71875 16.84375 1 16.09375 1.1875 C 15.351562 1.382812 14.628906 1.484375 13.921875 1.484375 Z M 10.484375 -13.4375 C 10.304688 -13.4375 10.140625 -13.414062 9.984375 -13.375 C 9.671875 -13.3125 9.285156 -13.085938 8.828125 -12.703125 C 8.378906 -12.316406 7.914062 -11.835938 7.4375 -11.265625 C 6.957031 -10.691406 6.503906 -10.078125 6.078125 -9.421875 C 5.660156 -8.773438 5.320312 -8.148438 5.0625 -7.546875 C 4.8125 -6.953125 4.6875 -6.441406 4.6875 -6.015625 C 4.6875 -5.609375 4.800781 -5.335938 5.03125 -5.203125 C 5.257812 -5.078125 5.539062 -5.015625 5.875 -5.015625 C 6.664062 -5.015625 7.414062 -5.226562 8.125 -5.65625 C 8.832031 -6.082031 9.484375 -6.640625 10.078125 -7.328125 C 10.679688 -8.015625 11.222656 -8.757812 11.703125 -9.5625 C 12.191406 -10.375 12.617188 -11.15625 12.984375 -11.90625 C 12.992188 -11.925781 13 -11.960938 13 -12.015625 C 13 -12.203125 12.867188 -12.40625 12.609375 -12.625 C 12.359375 -12.84375 12.039062 -13.03125 11.65625 -13.1875 C 11.269531 -13.351562 10.878906 -13.4375 10.484375 -13.4375 Z M 10.484375 -13.4375 "/></g></g></g><g fill="#ffffff" fill-opacity="1"><g transform="translate(220.814563, 264.678538)"><g><path d="M 6.203125 0.421875 C 5.796875 0.421875 5.335938 0.328125 4.828125 0.140625 C 4.328125 -0.046875 3.835938 -0.269531 3.359375 -0.53125 C 2.878906 -0.789062 2.476562 -1.023438 2.15625 -1.234375 C 1.394531 -1.753906 0.78125 -2.222656 0.3125 -2.640625 C -0.144531 -3.054688 -0.476562 -3.503906 -0.6875 -3.984375 C -0.90625 -4.472656 -1.015625 -5.082031 -1.015625 -5.8125 C -1.015625 -7.351562 -0.8125 -8.757812 -0.40625 -10.03125 C -0.0078125 -11.300781 0.566406 -12.492188 1.328125 -13.609375 C 2.097656 -14.722656 3.050781 -15.800781 4.1875 -16.84375 C 4.582031 -17.21875 5.046875 -17.613281 5.578125 -18.03125 C 6.109375 -18.445312 6.671875 -18.84375 7.265625 -19.21875 C 7.859375 -19.59375 8.460938 -19.898438 9.078125 -20.140625 C 9.691406 -20.378906 10.28125 -20.5 10.84375 -20.5 C 11.71875 -20.5 12.472656 -20.285156 13.109375 -19.859375 C 13.742188 -19.441406 14.226562 -18.882812 14.5625 -18.1875 C 14.90625 -17.5 15.078125 -16.753906 15.078125 -15.953125 C 15.078125 -15.171875 14.941406 -14.503906 14.671875 -13.953125 C 14.398438 -13.410156 14.039062 -12.910156 13.59375 -12.453125 C 13.144531 -11.992188 12.660156 -11.492188 12.140625 -10.953125 C 11.953125 -10.984375 11.8125 -11.0625 11.71875 -11.1875 C 11.632812 -11.3125 11.546875 -11.441406 11.453125 -11.578125 L 9.4375 -14.4375 C 8.90625 -14.15625 8.390625 -13.773438 7.890625 -13.296875 C 7.390625 -12.816406 6.9375 -12.28125 6.53125 -11.6875 C 6.132812 -11.09375 5.820312 -10.476562 5.59375 -9.84375 C 5.375 -9.21875 5.265625 -8.609375 5.265625 -8.015625 C 5.265625 -7.398438 5.335938 -6.753906 5.484375 -6.078125 C 5.640625 -5.398438 5.910156 -4.847656 6.296875 -4.421875 C 7.015625 -4.628906 7.757812 -4.875 8.53125 -5.15625 C 9.300781 -5.445312 10.15625 -5.835938 11.09375 -6.328125 C 12.03125 -6.816406 13.109375 -7.453125 14.328125 -8.234375 C 15.546875 -9.015625 16.96875 -10.003906 18.59375 -11.203125 C 18.832031 -11.273438 19.09375 -11.3125 19.375 -11.3125 C 19.882812 -11.3125 20.253906 -11.195312 20.484375 -10.96875 C 20.722656 -10.738281 20.84375 -10.363281 20.84375 -9.84375 C 20.84375 -9.550781 20.78125 -9.25 20.65625 -8.9375 C 20.539062 -8.632812 20.363281 -8.347656 20.125 -8.078125 C 19.644531 -7.554688 19.109375 -7.046875 18.515625 -6.546875 C 17.921875 -6.054688 17.316406 -5.597656 16.703125 -5.171875 C 16.097656 -4.753906 15.535156 -4.378906 15.015625 -4.046875 C 14.492188 -3.710938 14.078125 -3.441406 13.765625 -3.234375 C 13.492188 -3.066406 13.140625 -2.832031 12.703125 -2.53125 C 12.265625 -2.238281 11.773438 -1.921875 11.234375 -1.578125 C 10.703125 -1.242188 10.144531 -0.921875 9.5625 -0.609375 C 8.976562 -0.304688 8.394531 -0.0625 7.8125 0.125 C 7.238281 0.320312 6.703125 0.421875 6.203125 0.421875 Z M 6.203125 0.421875 "/></g></g></g><g fill="#ffffff" fill-opacity="1"><g transform="translate(239.372724, 264.678538)"><g><path d="M 18.34375 -30.453125 C 18.34375 -29.566406 18.210938 -28.632812 17.953125 -27.65625 C 17.691406 -26.675781 17.34375 -25.691406 16.90625 -24.703125 C 16.476562 -23.710938 16 -22.75 15.46875 -21.8125 C 14.945312 -20.875 14.40625 -19.988281 13.84375 -19.15625 C 13.289062 -18.320312 12.769531 -17.578125 12.28125 -16.921875 C 12.101562 -16.691406 11.8125 -16.375 11.40625 -15.96875 C 11 -15.5625 10.539062 -15.109375 10.03125 -14.609375 C 9.53125 -14.117188 9.039062 -13.625 8.5625 -13.125 C 8.082031 -12.625 7.671875 -12.171875 7.328125 -11.765625 C 6.984375 -11.359375 6.78125 -11.039062 6.71875 -10.8125 C 6.75 -10.800781 6.773438 -10.789062 6.796875 -10.78125 C 6.828125 -10.769531 6.851562 -10.765625 6.875 -10.765625 C 6.894531 -10.765625 6.90625 -10.765625 6.90625 -10.765625 C 6.914062 -10.773438 6.925781 -10.78125 6.9375 -10.78125 C 7.175781 -10.875 7.5 -11.078125 7.90625 -11.390625 C 8.3125 -11.710938 8.773438 -12.09375 9.296875 -12.53125 C 9.828125 -12.96875 10.394531 -13.414062 11 -13.875 C 11.613281 -14.34375 12.238281 -14.78125 12.875 -15.1875 C 13.519531 -15.59375 14.15625 -15.921875 14.78125 -16.171875 C 15.414062 -16.429688 16.019531 -16.5625 16.59375 -16.5625 C 16.945312 -16.5625 17.222656 -16.382812 17.421875 -16.03125 C 17.628906 -15.6875 17.78125 -15.257812 17.875 -14.75 C 17.96875 -14.25 18.015625 -13.765625 18.015625 -13.296875 C 18.015625 -12.585938 17.890625 -11.875 17.640625 -11.15625 C 17.398438 -10.445312 17.085938 -9.738281 16.703125 -9.03125 C 16.316406 -8.332031 15.910156 -7.628906 15.484375 -6.921875 C 15.054688 -6.210938 14.65625 -5.515625 14.28125 -4.828125 C 13.914062 -4.140625 13.628906 -3.457031 13.421875 -2.78125 C 13.941406 -3.113281 14.578125 -3.601562 15.328125 -4.25 C 16.078125 -4.894531 16.890625 -5.632812 17.765625 -6.46875 C 18.648438 -7.3125 19.550781 -8.203125 20.46875 -9.140625 C 21.394531 -10.085938 22.285156 -11.019531 23.140625 -11.9375 L 24.734375 -9.546875 C 24.378906 -8.984375 23.929688 -8.332031 23.390625 -7.59375 C 22.859375 -6.863281 22.273438 -6.101562 21.640625 -5.3125 C 21.003906 -4.519531 20.332031 -3.75 19.625 -3 C 18.914062 -2.25 18.191406 -1.570312 17.453125 -0.96875 C 16.722656 -0.363281 16.007812 0.113281 15.3125 0.46875 C 14.613281 0.832031 13.941406 1.015625 13.296875 1.015625 C 12.796875 1.015625 12.273438 0.976562 11.734375 0.90625 C 11.203125 0.832031 10.707031 0.695312 10.25 0.5 C 9.800781 0.3125 9.4375 0.0234375 9.15625 -0.359375 C 8.875 -0.742188 8.734375 -1.242188 8.734375 -1.859375 C 8.734375 -1.921875 8.738281 -1.992188 8.75 -2.078125 C 8.757812 -2.160156 8.769531 -2.238281 8.78125 -2.3125 C 8.894531 -3.113281 9.113281 -3.890625 9.4375 -4.640625 C 9.757812 -5.390625 10.132812 -6.128906 10.5625 -6.859375 C 10.988281 -7.585938 11.410156 -8.3125 11.828125 -9.03125 C 12.242188 -9.757812 12.601562 -10.488281 12.90625 -11.21875 C 12.40625 -11.207031 11.859375 -11.046875 11.265625 -10.734375 C 10.671875 -10.429688 10.066406 -10.03125 9.453125 -9.53125 C 8.847656 -9.039062 8.253906 -8.507812 7.671875 -7.9375 C 7.097656 -7.375 6.578125 -6.828125 6.109375 -6.296875 C 5.648438 -5.765625 5.273438 -5.304688 4.984375 -4.921875 C 4.535156 -4.347656 4.125 -3.75 3.75 -3.125 C 3.382812 -2.507812 3 -1.929688 2.59375 -1.390625 C 2.1875 -0.859375 1.726562 -0.425781 1.21875 -0.09375 C 0.707031 0.238281 0.101562 0.40625 -0.59375 0.40625 C -0.800781 0.40625 -1.035156 0.367188 -1.296875 0.296875 C -1.566406 0.222656 -1.800781 0.109375 -2 -0.046875 C -2.195312 -0.203125 -2.296875 -0.40625 -2.296875 -0.65625 C -2.296875 -0.6875 -2.289062 -0.710938 -2.28125 -0.734375 C -2.28125 -0.753906 -2.28125 -0.773438 -2.28125 -0.796875 C -2.226562 -1.140625 -2.132812 -1.640625 -2 -2.296875 C -1.875 -2.953125 -1.722656 -3.6875 -1.546875 -4.5 C -1.378906 -5.3125 -1.195312 -6.140625 -1 -6.984375 C -0.8125 -7.835938 -0.625 -8.628906 -0.4375 -9.359375 C -0.25 -10.085938 -0.078125 -10.6875 0.078125 -11.15625 C 0.441406 -12.195312 0.828125 -13.253906 1.234375 -14.328125 C 1.640625 -15.398438 2.046875 -16.460938 2.453125 -17.515625 C 2.859375 -18.566406 3.234375 -19.5625 3.578125 -20.5 C 3.804688 -21.101562 4.117188 -21.847656 4.515625 -22.734375 C 4.921875 -23.617188 5.390625 -24.566406 5.921875 -25.578125 C 6.460938 -26.585938 7.0625 -27.585938 7.71875 -28.578125 C 8.375 -29.566406 9.070312 -30.46875 9.8125 -31.28125 C 10.550781 -32.09375 11.316406 -32.738281 12.109375 -33.21875 C 12.898438 -33.707031 13.703125 -33.953125 14.515625 -33.953125 C 14.890625 -33.953125 15.289062 -33.835938 15.71875 -33.609375 C 16.15625 -33.390625 16.570312 -33.097656 16.96875 -32.734375 C 17.363281 -32.378906 17.6875 -32 17.9375 -31.59375 C 18.1875 -31.1875 18.320312 -30.804688 18.34375 -30.453125 Z M 14.0625 -27.3125 C 13.726562 -26.90625 13.332031 -26.394531 12.875 -25.78125 C 12.425781 -25.175781 11.957031 -24.515625 11.46875 -23.796875 C 10.976562 -23.078125 10.503906 -22.332031 10.046875 -21.5625 C 9.585938 -20.800781 9.164062 -20.050781 8.78125 -19.3125 C 8.40625 -18.570312 8.109375 -17.878906 7.890625 -17.234375 C 7.671875 -16.585938 7.5625 -16.03125 7.5625 -15.5625 L 7.5625 -15.4375 C 8.4375 -16.519531 9.195312 -17.492188 9.84375 -18.359375 C 10.488281 -19.222656 11.046875 -20.03125 11.515625 -20.78125 C 11.992188 -21.53125 12.40625 -22.242188 12.75 -22.921875 C 13.09375 -23.609375 13.394531 -24.3125 13.65625 -25.03125 C 13.925781 -25.757812 14.179688 -26.535156 14.421875 -27.359375 C 14.179688 -27.347656 14.0625 -27.332031 14.0625 -27.3125 Z M 14.0625 -27.3125 "/></g></g></g></svg>